:SAMPLES-PER-SECOND 30
:FULLY-SPECIFIED
:DEGREES
62
root  73.257 38.7121 -9.78722 4.89683 -85.2776 -1.60916
RightUpLeg  2.804 -11.7522 -1.50886
RightLeg  16.2805 -2.94611 2.2254
RightFoot  -21.8129 -0.0811455 0.724181
RightToes  -5.8209e-011 0 -3.6325e-017
Spine  2.84405 0.353121 12.1284
Spine1  8.7536 1.8525 -4.60074
HEad  -17.1192 -1.92664 -8.37158
LeftShoulder1  8.21253 -11.5482 -47.6127
LeftArm  -9.80375 27.5924 -29.4453
LeftForeArm  46.3423 -69.3423 -25.3757
LeftHand  -0.244104 0.0205437 5.32207
RightShoulder  6.19703 9.23304 42.3615
RightArm  -1.23707 -8.56201 35.3084
RightForeArm  75.1113 78.8481 97.1977
RightHand  0.211668 -7.96163 -10.8873
LeftUpLeg  -26.84 6.21564 -0.251369
LeftLeg  43.4247 5.76355 6.2062
LeftFoot  -11.2888 0.0691234 -5.84621
LeftToes  -6.09394e-011 -3.18376e-011 -2.71738e-012
63
root  72.4085 38.6332 -9.8622 -2.4845 -85.5679 5.72268
RightUpLeg  4.86982 -11.7906 -2.45634
RightLeg  15.2752 -2.5026 2.56235
RightFoot  -22.5015 -0.0424436 1.12618
RightToes  -5.8209e-011 0 -3.6325e-017
Spine  4.07652 1.05058 12.3316
Spine1  8.05277 3.10318 -6.37111
HEad  -19.3303 -2.18698 -7.24919
LeftShoulder1  8.18075 -11.4675 -47.6846
LeftArm  -9.93471 32.058 -29.5496
LeftForeArm  64.9177 -77.1027 -44.9547
LeftHand  -0.244104 0.0205437 5.32207
RightShoulder  6.12946 9.21499 41.9308
RightArm  0.856145 -6.40327 34.722
RightForeArm  112.899 75.7643 130.79
RightHand  0.299271 -9.7046 -9.06911
LeftUpLeg  -27.3253 7.08355 -2.13813
LeftLeg  41.7816 5.48354 5.62055
LeftFoot  -12.7517 0.00432377 -5.79778
LeftToes  -6.09394e-011 -3.18376e-011 -2.71738e-012
64
root  71.4331 38.6287 -9.9339 -15.9078 -85.5402 19.6634
RightUpLeg  6.57392 -11.6312 -3.79467
RightLeg  13.9869 -2.31467 2.78459
RightFoot  -22.2635 -0.0106093 1.46071
RightToes  -5.8209e-011 0 -3.6325e-017
Spine  4.59481 1.95336 11.9319
Spine1  7.34082 4.5301 -8.41623
HEad  -19.9022 -3.68956 -5.81694
LeftShoulder1  8.08092 -11.3656 -47.4198
LeftArm  -9.0268 35.5122 -28.8338
LeftForeArm  102.496 -80.7262 -83.8999
LeftHand  -0.244104 0.0205437 5.32207
RightShoulder  6.02206 9.1834 41.2514
RightArm  2.1655 -5.7558 34.2863
RightForeArm  133.769 71.7107 145.473
RightHand  0.223252 -9.98256 -6.65487
LeftUpLeg  -27.6995 7.72044 -4.36812
LeftLeg  39.0974 4.52914 4.31606
LeftFoot  -13.5903 -0.0359503 -5.98974
LeftToes  -6.09394e-011 -3.18376e-011 -2.71738e-012
65
root  70.34 38.7152 -9.97472 -31.7281 -85.1793 36.4579
RightUpLeg  7.51347 -12.0218 -5.40009
RightLeg  13.3895 -1.2627 2.68358
RightFoot  -20.7326 0.009867 1.82693
RightToes  -5.8209e-011 0 -3.6325e-017
Spine  4.62359 2.94385 11.458
Spine1  6.35443 6.12009 -11.1844
HEad  -19.7436 -5.87297 -3.91816
LeftShoulder1  7.86868 -11.2442 -46.5346
LeftArm  -7.75312 38.0984 -27.9142
LeftForeArm  139.464 -79.1361 -121.918
LeftHand  -0.244104 0.0205437 5.32207
RightShoulder  5.95895 9.19362 40.749
RightArm  3.36599 -7.0958 33.962
RightForeArm  143.906 68.8782 151.545
RightHand  0.143317 -9.32696 -5.46831
LeftUpLeg  -27.7717 7.85534 -6.77108
LeftLeg  35.8905 4.05001 3.50137
LeftFoot  -14.4324 -0.0640432 -5.58862
LeftToes  -6.09394e-011 -3.18376e-011 -2.71738e-012
66
root  69.1673 38.8554 -9.97175 -47.5547 -84.758 52.98
RightUpLeg  7.65947 -13.5063 -7.19529
RightLeg  14.9904 1.62898 2.05178
RightFoot  -18.6485 0.10922 3.70126
RightToes  -5.8209e-011 0 -3.6325e-017
Spine  5.14947 3.69214 11.1514
Spine1  5.12417 7.56512 -14.5116
HEad  -19.9536 -7.2515 -1.99439
LeftShoulder1  7.67649 -11.1537 -45.6546
LeftArm  -6.98957 39.623 -26.954
LeftForeArm  156.636 -75.7331 -140.064
LeftHand  -0.244104 0.0205437 5.32207
RightShoulder  6.04392 9.33444 40.8857
RightArm  5.04105 -9.48043 33.7067
RightForeArm  146.506 68.2374 152.709
RightHand  0.123539 -9.07517 -5.1963
LeftUpLeg  -27.0176 7.21459 -8.74014
LeftLeg  33.289 4.41803 3.47299
LeftFoot  -15.4123 -0.0972146 -5.31551
LeftToes  -6.09394e-011 -3.18376e-011 -2.71738e-012
67
root  67.9661 38.9544 -9.93027 -61.74 -84.4708 67.2805
RightUpLeg  6.32021 -13.7004 -8.51377
RightLeg  20.1987 3.87642 1.281
RightFoot  -16.1739 0.222208 8.04506
RightToes  -5.8209e-011 0 -3.6325e-017
Spine  6.09614 4.03442 10.6829
Spine1  4.47443 8.48627 -17.2186
HEad  -20.7122 -7.39133 -0.368565
LeftShoulder1  7.72084 -11.2273 -45.6878
LeftArm  -7.35313 39.5683 -26.0098
LeftForeArm  162.844 -73.1242 -147.279
LeftHand  -0.244104 0.0205437 5.32207
RightShoulder  6.26648 9.64034 41.4475
RightArm  7.06802 -11.615 33.4664
RightForeArm  144.019 70.1433 149.591
RightHand  0.116639 -9.14666 -4.90199
LeftUpLeg  -25.2463 6.15613 -9.85181
LeftLeg  31.6323 4.96997 3.65032
LeftFoot  -15.7413 -0.119299 -5.5588
LeftToes  -6.09394e-011 -3.18376e-011 -2.71738e-012
68
root  66.7513 38.9107 -9.85335 -77.0382 -84.5148 82.2415
RightUpLeg  2.55735 -9.60813 -8.90853
RightLeg  29.8203 2.38822 1.24004
RightFoot  -11.1408 -0.106894 12.4576
RightToes  -5.8209e-011 0 -3.6325e-017
Spine  6.93665 4.16077 9.57967
Spine1  4.76746 8.86078 -18.1072
HEad  -21.7635 -6.67646 0.668569
LeftShoulder1  7.96229 -11.4663 -46.3885
LeftArm  -8.91199 38.3266 -25.8627
LeftForeArm  165.658 -71.5719 -150.444
LeftHand  -0.244104 0.0205437 5.32207
RightShoulder  6.46399 10.0376 41.5072
RightArm  9.32726 -13.1224 33.4833
RightForeArm  135.415 73.8872 140.75
RightHand  0.0943956 -8.83311 -4.56379
LeftUpLeg  -22.3586 5.6515 -10.2539
LeftLeg  30.067 5.29882 3.65743
LeftFoot  -15.3121 -0.0764302 -4.78657
LeftToes  -6.09394e-011 -3.18376e-011 -2.71738e-012
69
root  65.525 38.6415 -9.74792 -96.3179 -84.4266 100.83
RightUpLeg  -3.54117 -6.03397 -9.30935
RightLeg  42.9179 1.69022 1.40867
RightFoot  -1.52226 -1.12712 13.3026
RightToes  -5.8209e-011 0 -3.6325e-017
Spine  8.1184 4.12295 7.53626
Spine1  4.97973 8.62743 -17.1326
HEad  -23.14 -5.41287 0.982513
LeftShoulder1  8.13966 -11.6722 -46.7906
LeftArm  -10.89 36.8086 -26.7805
LeftForeArm  168.743 -70.0968 -153.079
LeftHand  -0.244104 0.0205437 5.32207
RightShoulder  6.49138 10.3492 40.6811
RightArm  11.7902 -14.2205 34.0685
RightForeArm  116.467 77.8898 121.602
RightHand  0.068808 -8.65339 -3.95164
LeftUpLeg  -18.9165 5.75681 -10.5349
LeftLeg  28.9068 6.07393 3.97148
LeftFoot  -15.6612 0.0245133 -1.98732
LeftToes  -6.09394e-011 -3.18376e-011 -2.71738e-012
